<svg xmlns="http://www.w3.org/2000/svg" viewBox="0 0 599 599">
  <defs>
    <style>
      .cls-1, .cls-2 {
        fill: none;
      }

      .cls-2 {
        stroke: #fff615;
        stroke-miterlimit: 10;
        stroke-width: 13.645px;
      }
    </style>
  </defs>
  <g id="Module_-_Wires" data-name="Module - Wires" transform="translate(0 -8)">
    <rect id="Rectangle_72" data-name="Rectangle 72" class="cls-1" width="599" height="599" transform="translate(0 8)"/>
    <path id="wire1_1_" class="cls-2" d="M55.9,100.8c41.1-7,66.8,1.2,83.2,10.9,20.9,12.4,23.7,25.7,45,36.8,28.7,15,57.1,8.3,80.5,5.5,33.6-4.1,82.2-3.3,146,19.1"/>
    <path id="wire2_1_" class="cls-2" d="M54.6,188.1c12.8,10.4,33.1,23.7,60,28.7,27.8,5.1,37.6-3.2,71-4.1,56.5-1.5,56.9,21.6,106.4,19.1,41.8-2.1,60.3-19.6,88.7-6.8,14,6.3,23.2,16.8,28.7,24.6"/>
    <path id="wire3_1_" class="cls-2" d="M54.6,278.2c17.9-5.7,56.9-15.4,103.7-4.1,34.2,8.3,35.3,23.9,65.5,30,50.7,10.2,72.6-23.5,121.4-15,16.2,2.8,38.9,10.8,64.1,35.5"/>
    <path id="wire4_1_" class="cls-2" d="M54.6,369.6c37.3,14.7,68.5,19.9,90.1,21.8,70.5,6.5,104.7-14.7,177.4-9.6a349.67,349.67,0,0,1,87.3,17.7"/>
    <path id="wire5_1_" class="cls-2" d="M54.6,459.6c43.9,18.3,78.5,19.2,102.3,16.4,59.2-7,73-39.2,124.2-32.7,20.8,2.6,25.2,8.8,81.9,21.8,19.6,4.5,35.8,7.6,46.4,9.6"/>
    <path id="wire6_1_" class="cls-2" d="M54.6,549.7c21.5,8.4,54.6,18,94.1,15,48.1-3.6,70.1-23,110.5-32.7,32.6-7.8,81.9-10.5,150.1,17.7"/>
  </g>
</svg>
