<svg xmlns="http://www.w3.org/2000/svg" viewBox="0 0 135.159 135">
  <defs>
    <style>
      .cls-1, .cls-2, .cls-3 {
        fill: none;
      }

      .cls-2 {
        stroke: #488124;
        stroke-width: 2px;
      }

      .cls-3 {
        stroke: red;
      }

      .cls-4 {
        stroke: none;
      }
    </style>
  </defs>
  <g id="maze_rings9_grid" transform="translate(-1443 -55)">
    <rect id="Rectangle_162" data-name="Rectangle 162" class="cls-1" width="135" height="135" transform="translate(1443 55)"/>
    <g id="Ellipse_46" data-name="Ellipse 46" class="cls-2" transform="translate(1448 144)">
      <circle class="cls-4" cx="10" cy="10" r="10"/>
      <circle class="cls-1" cx="10" cy="10" r="9"/>
    </g>
    <g id="Ellipse_47" data-name="Ellipse 47" class="cls-2" transform="translate(1490 81)">
      <circle class="cls-4" cx="10" cy="10" r="10"/>
      <circle class="cls-1" cx="10" cy="10" r="9"/>
    </g>
    <path id="Path_81" data-name="Path 81" class="cls-3" d="M1454.994-689v48.279" transform="translate(13 744)"/>
    <path id="Path_82" data-name="Path 82" class="cls-3" d="M1454.994-578.109V-622.55h44.066v-20.168h19.832v-23.154h-43.156v23.154" transform="translate(13 744)"/>
    <path id="Path_83" data-name="Path 83" class="cls-3" d="M1540.2-664.86v43.923h-22.814v20.156" transform="translate(13 744)"/>
    <path id="Path_84" data-name="Path 84" class="cls-3" d="M1518.893-555.856v-22.892" transform="translate(13 744)"/>
    <path id="Path_85" data-name="Path 85" class="cls-3" d="M1497.5-578.748v-21.692h43.237v21.692h24.422" transform="translate(13 744)"/>
    <path id="Path_86" data-name="Path 86" class="cls-3" d="M1476.435-554v-68.2" transform="translate(13 744)"/>
  </g>
</svg>
