<svg xmlns="http://www.w3.org/2000/svg" viewBox="0 0 135 135">
  <defs>
    <style>
      .cls-1, .cls-2, .cls-3 {
        fill: none;
      }

      .cls-2 {
        stroke: #488124;
        stroke-width: 2px;
      }

      .cls-3 {
        stroke: red;
      }

      .cls-4 {
        stroke: none;
      }
    </style>
  </defs>
  <g id="maze_rings5_grid" transform="translate(-1443 -55)">
    <rect id="Rectangle_162" data-name="Rectangle 162" class="cls-1" width="135" height="135" transform="translate(1443 55)"/>
    <g id="Ellipse_46" data-name="Ellipse 46" class="cls-2" transform="translate(1511 165)">
      <circle class="cls-4" cx="10" cy="10" r="10"/>
      <circle class="cls-1" cx="10" cy="10" r="9"/>
    </g>
    <g id="Ellipse_47" data-name="Ellipse 47" class="cls-2" transform="translate(1532 102)">
      <circle class="cls-4" cx="10" cy="10" r="10"/>
      <circle class="cls-1" cx="10" cy="10" r="9"/>
    </g>
    <path id="Path_48" data-name="Path 48" class="cls-3" d="M1430-664.211h88.233" transform="translate(13 744)"/>
    <path id="Path_49" data-name="Path 49" class="cls-3" d="M1539.515-664.211v22.7" transform="translate(13 744)"/>
    <path id="Path_50" data-name="Path 50" class="cls-3" d="M1565-641.509h-46.924v40.244H1540.8" transform="translate(13 744)"/>
    <path id="Path_51" data-name="Path 51" class="cls-3" d="M1541.538-619.4v40.371h-64.783" transform="translate(13 744)"/>
    <path id="Path_52" data-name="Path 52" class="cls-3" d="M1518.233-619.4H1475.9v-23.8" transform="translate(13 744)"/>
    <path id="Path_53" data-name="Path 53" class="cls-3" d="M1454.23-643.2h43.505" transform="translate(13 744)"/>
    <path id="Path_54" data-name="Path 54" class="cls-3" d="M1454.23-554v-67" transform="translate(13 744)"/>
    <path id="Path_55" data-name="Path 55" class="cls-3" d="M1454.23-601.265h43.288" transform="translate(13 744)"/>
  </g>
</svg>
