<svg xmlns="http://www.w3.org/2000/svg" viewBox="0 0 190 190">
  <defs>
    <style>
      .cls-1 {
        fill: #d6d6d6;
      }

      .cls-2 {
        fill: #878686;
      }

      .cls-3, .cls-6 {
        fill: #444;
      }

      .cls-4 {
        fill: #fff;
      }

      .cls-5 {
        font-size: 14px;
        font-family: Courier;
      }

      .cls-6 {
        stroke: #878686;
        stroke-width: 2px;
      }

      .cls-7, .cls-9 {
        fill: none;
      }

      .cls-7 {
        stroke: #000;
        stroke-linecap: round;
        stroke-width: 6px;
      }

      .cls-8 {
        stroke: none;
      }
    </style>
  </defs>
  <g id="Module_Wire_Sequences" transform="translate(-12 -14)">
    <g id="bg">
      <path id="Path_15" data-name="Path 15" class="cls-1" d="M0,0H190V190H0Z" transform="translate(12 14)"/>
      <rect id="Rectangle_95" data-name="Rectangle 95" class="cls-2" width="30" height="30" transform="translate(167 19)"/>
      <circle id="Ellipse_43" data-name="Ellipse 43" class="cls-3" cx="12" cy="12" r="12" transform="translate(170.202 22.072)"/>
    </g>
    <g id="Arrow_up" transform="translate(-1191 -1)">
      <rect id="Rectangle_145" data-name="Rectangle 145" class="cls-4" width="40" height="20" transform="translate(1263 25)"/>
      <path id="Path_20" data-name="Path 20" class="cls-2" d="M43.142,24.15H36.2c-.437,0-.792-.246-.792-.551v-6.02H31.785c-.776,0-.983-.645-.562-.942l7.991-5.556a1.084,1.084,0,0,1,1.12,0l7.987,5.556c.492.343.211.942-.562.942H43.934V23.6c0,.3-.351.551-.792.551Z" transform="translate(1243.193 17.038)"/>
    </g>
    <g id="Arrow_down" transform="translate(1375 219) rotate(180)">
      <rect id="Rectangle_145-2" data-name="Rectangle 145" class="cls-4" width="40" height="20" transform="translate(1263 25)"/>
      <path id="Path_20-2" data-name="Path 20" class="cls-2" d="M43.142,24.15H36.2c-.437,0-.792-.246-.792-.551v-6.02H31.785c-.776,0-.983-.645-.562-.942l7.991-5.556a1.084,1.084,0,0,1,1.12,0l7.987,5.556c.492.343.211.942-.562.942H43.934V23.6c0,.3-.351.551-.792.551Z" transform="translate(1243.193 17.038)"/>
    </g>
    <g id="Strip" transform="translate(-1176 -1)">
      <rect id="strip_color" width="30" height="120" transform="translate(1343 69)"/>
      <rect id="strip_label1" class="cls-4" width="18" height="10" transform="translate(1349.42 169)"/>
      <rect id="strip_label2" class="cls-4" width="18" height="10" transform="translate(1349.42 149)"/>
      <rect id="strip_label3" class="cls-4" width="18" height="10" transform="translate(1349.42 129)"/>
      <rect id="strip_label4" class="cls-4" width="18" height="10" transform="translate(1349.42 109)"/>
    </g>
    <g id="Panel" transform="translate(-1176 -1)">
      <rect id="Rectangle_152" data-name="Rectangle 152" class="cls-4" width="110" height="110" transform="translate(1213 55)"/>
      <text id="_1" data-name="1" class="cls-5" transform="translate(1218 86)"><tspan x="0" y="0">1</tspan></text>
      <text id="A" class="cls-5" transform="translate(1310 86)"><tspan x="0" y="0">A</tspan></text>
      <text id="_3" data-name="3" class="cls-5" transform="translate(1218 142)"><tspan x="0" y="0">3</tspan></text>
      <text id="C" class="cls-5" transform="translate(1310 142)"><tspan x="0" y="0">C</tspan></text>
      <text id="_2" data-name="2" class="cls-5" transform="translate(1218 114)"><tspan x="0" y="0">2</tspan></text>
      <text id="B" class="cls-5" transform="translate(1310 114)"><tspan x="0" y="0">B</tspan></text>
      <g id="Rectangle_154" data-name="Rectangle 154" class="cls-6" transform="translate(1233 76)">
        <rect class="cls-8" width="12" height="12"/>
        <rect class="cls-9" x="1" y="1" width="10" height="10"/>
      </g>
      <g id="Rectangle_156" data-name="Rectangle 156" class="cls-6" transform="translate(1233 104)">
        <rect class="cls-8" width="12" height="12"/>
        <rect class="cls-9" x="1" y="1" width="10" height="10"/>
      </g>
      <g id="Rectangle_158" data-name="Rectangle 158" class="cls-6" transform="translate(1233 132)">
        <rect class="cls-8" width="12" height="12"/>
        <rect class="cls-9" x="1" y="1" width="10" height="10"/>
      </g>
      <g id="Rectangle_155" data-name="Rectangle 155" class="cls-6" transform="translate(1291 76)">
        <rect class="cls-8" width="12" height="12"/>
        <rect class="cls-9" x="1" y="1" width="10" height="10"/>
      </g>
      <g id="Rectangle_157" data-name="Rectangle 157" class="cls-6" transform="translate(1291 104)">
        <rect class="cls-8" width="12" height="12"/>
        <rect class="cls-9" x="1" y="1" width="10" height="10"/>
      </g>
      <g id="Rectangle_159" data-name="Rectangle 159" class="cls-6" transform="translate(1291 132)">
        <rect class="cls-8" width="12" height="12"/>
        <rect class="cls-9" x="1" y="1" width="10" height="10"/>
      </g>
    </g>
    <g id="Wires" transform="translate(-1176 -1)">
      <path id="Wire_1C" class="cls-7" d="M0,0A194.849,194.849,0,0,1,31.651,24.153C46.151,38.153,58,56,58,56" transform="translate(1239 82)"/>
      <path id="Wire_1B" class="cls-7" d="M0,0A168.465,168.465,0,0,1,29.921,10.678,190.738,190.738,0,0,1,58,27.988" transform="translate(1239 82)"/>
      <path id="Wire_1A" class="cls-7" d="M0,0S12.956-1.366,27.456-1.366,58,0,58,0" transform="translate(1239 82)"/>
      <path id="Wire_2C" class="cls-7" d="M0,0S13.942,8.554,28.442,15.554,58,28,58,28" transform="translate(1239 110)"/>
      <path id="Wire_2B" class="cls-7" d="M0,0A235.111,235.111,0,0,0,27.661,1.765C42.161,1.765,58,0,58,0" transform="translate(1239 110)"/>
      <path id="Wire_2A" class="cls-7" d="M0,28s16.029-9.54,30.529-16.54A281.456,281.456,0,0,1,58,0" transform="translate(1239 82)"/>
      <path id="Wire_3C" class="cls-7" d="M0,0A182.834,182.834,0,0,1,27.546-2.25,254.549,254.549,0,0,1,58,0" transform="translate(1239 138)"/>
      <path id="Wire_3B" class="cls-7" d="M0-.006l58-28" transform="translate(1239 138.006)"/>
      <path id="Wire_3A" class="cls-7" d="M0,28.092l58-56.1" transform="translate(1239 109.908)"/>
    </g>
  </g>
</svg>
